<svg width="224" height="38" viewBox="0 0 224 38" fill="none" xmlns="http://www.w3.org/2000/svg">
<g filter="url(#filter0_d)">
<path d="M12.464 29.468C9.992 29.468 8.072 28.736 6.704 27.272C5.336 25.784 4.652 23.732 4.652 21.116V6.572H9.512V6.932C9.392 7.076 9.308 7.244 9.26 7.436C9.236 7.604 9.224 7.88 9.224 8.264V21.152C9.224 22.592 9.452 23.732 9.908 24.572C10.388 25.388 11.252 25.796 12.5 25.796C13.772 25.796 14.648 25.388 15.128 24.572C15.632 23.732 15.884 22.556 15.884 21.044V6.572H20.384V21.008C20.384 22.952 20.048 24.548 19.376 25.796C18.704 27.044 17.768 27.968 16.568 28.568C15.392 29.168 14.024 29.468 12.464 29.468ZM30.932 29.432C29.324 29.432 27.848 29.228 26.504 28.82C25.184 28.388 24.008 27.692 22.976 26.732L24.884 23.132L25.028 22.844L25.352 23.024C25.4 23.192 25.46 23.384 25.532 23.6C25.628 23.792 25.82 24.02 26.108 24.284C26.732 24.788 27.428 25.184 28.196 25.472C28.988 25.736 29.912 25.868 30.968 25.868C31.88 25.868 32.588 25.724 33.092 25.436C33.596 25.124 33.848 24.74 33.848 24.284C33.848 23.78 33.536 23.384 32.912 23.096C32.312 22.808 31.34 22.472 29.996 22.088C28.172 21.608 26.72 20.96 25.64 20.144C24.584 19.328 24.056 18.212 24.056 16.796C24.056 15.86 24.332 15.008 24.884 14.24C25.46 13.472 26.252 12.872 27.26 12.44C28.292 11.984 29.48 11.756 30.824 11.756C33.584 11.756 35.852 12.608 37.628 14.312L35.468 17.408L35.252 17.696L34.928 17.444C34.904 17.276 34.844 17.108 34.748 16.94C34.676 16.748 34.508 16.52 34.244 16.256C33.764 15.92 33.236 15.68 32.66 15.536C32.084 15.392 31.496 15.32 30.896 15.32C30.128 15.32 29.468 15.44 28.916 15.68C28.364 15.92 28.088 16.28 28.088 16.76C28.088 17.216 28.4 17.588 29.024 17.876C29.672 18.164 30.68 18.476 32.048 18.812C34.064 19.268 35.54 19.928 36.476 20.792C37.412 21.656 37.88 22.748 37.88 24.068C37.88 25.028 37.604 25.916 37.052 26.732C36.524 27.548 35.744 28.208 34.712 28.712C33.68 29.192 32.42 29.432 30.932 29.432ZM49.22 29.432C47.612 29.432 46.172 29.084 44.9 28.388C43.628 27.692 42.62 26.696 41.876 25.4C41.132 24.104 40.76 22.544 40.76 20.72C40.76 18.848 41.12 17.252 41.84 15.932C42.56 14.588 43.52 13.556 44.72 12.836C45.944 12.116 47.3 11.756 48.788 11.756C50.108 11.756 51.32 12.068 52.424 12.692C53.528 13.316 54.416 14.24 55.088 15.464C55.784 16.688 56.132 18.2 56.132 20C56.132 20.264 56.12 20.588 56.096 20.972C56.096 21.356 56.096 21.68 56.096 21.944H45.188C45.236 22.856 45.464 23.6 45.872 24.176C46.304 24.752 46.832 25.184 47.456 25.472C48.104 25.736 48.764 25.868 49.436 25.868C50.18 25.868 50.876 25.772 51.524 25.58C52.172 25.364 52.784 24.956 53.36 24.356L55.664 26.624C54.824 27.608 53.852 28.328 52.748 28.784C51.668 29.216 50.492 29.432 49.22 29.432ZM45.224 18.524H51.74C51.74 17.468 51.464 16.676 50.912 16.148C50.36 15.596 49.592 15.32 48.608 15.32C47.744 15.32 47 15.584 46.376 16.112C45.752 16.616 45.368 17.42 45.224 18.524ZM60.344 12.152H65.06V14.78C65.516 13.844 66.164 13.112 67.004 12.584C67.868 12.032 68.78 11.756 69.74 11.756C70.7 11.756 71.564 11.912 72.332 12.224C73.1 12.512 73.808 13.004 74.456 13.7L72.548 17.588L72.44 17.876L72.08 17.732C72.008 17.54 71.936 17.336 71.864 17.12C71.816 16.904 71.66 16.652 71.396 16.364C71.06 16.1 70.7 15.896 70.316 15.752C69.932 15.584 69.512 15.5 69.056 15.5C67.928 15.5 66.968 15.872 66.176 16.616C65.384 17.36 64.988 18.56 64.988 20.216V29H60.344V12.152Z" fill="#645CFF"/>
<path d="M78.524 29L75.788 6.572H79.676L80.936 20.288L83.564 8.372H86.156L88.82 20.216L89.684 6.572H93.392L90.728 29H87.632L84.68 15.428L81.692 29H78.524ZM102.464 29.396C100.952 29.396 99.584 29.036 98.36 28.316C97.136 27.572 96.164 26.54 95.444 25.22C94.724 23.9 94.364 22.352 94.364 20.576C94.364 18.92 94.724 17.432 95.444 16.112C96.164 14.768 97.136 13.712 98.36 12.944C99.584 12.152 100.952 11.756 102.464 11.756C103.976 11.756 105.344 12.152 106.568 12.944C107.816 13.712 108.8 14.768 109.52 16.112C110.264 17.432 110.636 18.92 110.636 20.576C110.636 22.328 110.264 23.864 109.52 25.184C108.8 26.504 107.816 27.536 106.568 28.28C105.344 29.024 103.976 29.396 102.464 29.396ZM102.464 25.76C103.52 25.76 104.384 25.292 105.056 24.356C105.752 23.396 106.1 22.136 106.1 20.576C106.1 18.944 105.752 17.672 105.056 16.76C104.384 15.848 103.52 15.392 102.464 15.392C101.456 15.392 100.604 15.848 99.908 16.76C99.236 17.672 98.9 18.944 98.9 20.576C98.9 22.136 99.236 23.396 99.908 24.356C100.58 25.292 101.432 25.76 102.464 25.76ZM114.344 12.152H119.06V14.78C119.516 13.844 120.164 13.112 121.004 12.584C121.868 12.032 122.78 11.756 123.74 11.756C124.7 11.756 125.564 11.912 126.332 12.224C127.1 12.512 127.808 13.004 128.456 13.7L126.548 17.588L126.44 17.876L126.08 17.732C126.008 17.54 125.936 17.336 125.864 17.12C125.816 16.904 125.66 16.652 125.396 16.364C125.06 16.1 124.7 15.896 124.316 15.752C123.932 15.584 123.512 15.5 123.056 15.5C121.928 15.5 120.968 15.872 120.176 16.616C119.384 17.36 118.988 18.56 118.988 20.216V29H114.344V12.152ZM136.916 21.62L135.836 22.7V29H131.228V4.772H136.124V5.132C136.004 5.276 135.92 5.444 135.872 5.636C135.848 5.804 135.836 6.08 135.836 6.464V17.732L141.668 11.972C142.052 12.068 142.508 12.14 143.036 12.188C143.564 12.236 143.972 12.26 144.26 12.26H146.528L139.976 18.812L147.356 28.964L142.316 29.144L136.916 21.62ZM152.216 15.716H148.58V12.152H152.216V11.252C152.216 9.74 152.552 8.48 153.224 7.472C153.92 6.464 154.82 5.72 155.924 5.24C157.028 4.736 158.204 4.484 159.452 4.484C160.604 4.484 161.672 4.688 162.656 5.096C163.664 5.504 164.516 6.08 165.212 6.824L163.628 9.884L163.448 10.172L163.16 9.992C163.088 9.824 163.004 9.656 162.908 9.488C162.812 9.296 162.608 9.068 162.296 8.804C161.888 8.54 161.48 8.348 161.072 8.228C160.664 8.108 160.208 8.048 159.704 8.048C158.768 8.048 158.036 8.324 157.508 8.876C157.004 9.428 156.752 10.22 156.752 11.252V12.152H161.72V15.716H156.752V29H152.216V15.716ZM167.552 29V25.4H172.232V8.372H167.768V4.772H176.84V25.4H181.448V29H167.552ZM192.464 29.396C190.952 29.396 189.584 29.036 188.36 28.316C187.136 27.572 186.164 26.54 185.444 25.22C184.724 23.9 184.364 22.352 184.364 20.576C184.364 18.92 184.724 17.432 185.444 16.112C186.164 14.768 187.136 13.712 188.36 12.944C189.584 12.152 190.952 11.756 192.464 11.756C193.976 11.756 195.344 12.152 196.568 12.944C197.816 13.712 198.8 14.768 199.52 16.112C200.264 17.432 200.636 18.92 200.636 20.576C200.636 22.328 200.264 23.864 199.52 25.184C198.8 26.504 197.816 27.536 196.568 28.28C195.344 29.024 193.976 29.396 192.464 29.396ZM192.464 25.76C193.52 25.76 194.384 25.292 195.056 24.356C195.752 23.396 196.1 22.136 196.1 20.576C196.1 18.944 195.752 17.672 195.056 16.76C194.384 15.848 193.52 15.392 192.464 15.392C191.456 15.392 190.604 15.848 189.908 16.76C189.236 17.672 188.9 18.944 188.9 20.576C188.9 22.136 189.236 23.396 189.908 24.356C190.58 25.292 191.432 25.76 192.464 25.76ZM204.74 29L201.752 12.152H205.676L207.332 23.024L209.6 14.132H211.904L214.46 22.916C214.7 21.068 214.88 19.544 215 18.344C215.12 17.144 215.192 16.16 215.216 15.392C215.264 14.6 215.288 13.892 215.288 13.268V12.152H219.104C219.008 13.904 218.828 15.752 218.564 17.696C218.3 19.64 218 21.584 217.664 23.528C217.328 25.472 217.004 27.296 216.692 29H212.768L210.68 20.468L208.736 29H204.74Z" fill="#333538"/>
</g>
<defs>
<filter id="filter0_d" x="0.651993" y="4.48401" width="222.452" height="32.984" filterUnits="userSpaceOnUse" color-interpolation-filters="sRGB">
<feFlood flood-opacity="0" result="BackgroundImageFix"/>
<feColorMatrix in="SourceAlpha" type="matrix" values="0 0 0 0 0 0 0 0 0 0 0 0 0 0 0 0 0 0 127 0" result="hardAlpha"/>
<feOffset dy="4"/>
<feGaussianBlur stdDeviation="2"/>
<feColorMatrix type="matrix" values="0 0 0 0 0 0 0 0 0 0 0 0 0 0 0 0 0 0 0.25 0"/>
<feBlend mode="normal" in2="BackgroundImageFix" result="effect1_dropShadow"/>
<feBlend mode="normal" in="SourceGraphic" in2="effect1_dropShadow" result="shape"/>
</filter>
</defs>
</svg>
